<svg xmlns="http://www.w3.org/2000/svg" width="1150" height="650" viewBox="0 0 1150 650">
<rect width="100%" height="100%" fill="white"/>
<style>text{font-family:Arial,Helvetica,sans-serif;fill:#17202a} .title{font-size:22px;font-weight:700} .axis{stroke:#566573;stroke-width:1} .grid{stroke:#d5d8dc;stroke-width:1} .label{font-size:12px} .small{font-size:10px;fill:#566573}</style>
<text x="575.0" y="30" text-anchor="middle" class="title">Per-Stock Cumulative Return</text>
<line x1="90" y1="520.0" x2="1120" y2="520.0" class="grid"/><text x="82" y="524.0" text-anchor="end" class="label">-5.41</text>
<line x1="90" y1="429.0" x2="1120" y2="429.0" class="grid"/><text x="82" y="433.0" text-anchor="end" class="label">3.79</text>
<line x1="90" y1="338.0" x2="1120" y2="338.0" class="grid"/><text x="82" y="342.0" text-anchor="end" class="label">13.00</text>
<line x1="90" y1="247.0" x2="1120" y2="247.0" class="grid"/><text x="82" y="251.0" text-anchor="end" class="label">22.20</text>
<line x1="90" y1="156.0" x2="1120" y2="156.0" class="grid"/><text x="82" y="160.0" text-anchor="end" class="label">31.41</text>
<line x1="90" y1="65.0" x2="1120" y2="65.0" class="grid"/><text x="82" y="69.0" text-anchor="end" class="label">40.61</text>
<rect x="127.8" y="287.9" width="32.5" height="178.6" fill="#1f4e79"/>
<rect x="161.2" y="179.0" width="32.5" height="287.5" fill="#2e75b6"/>
<rect x="194.7" y="466.5" width="32.5" height="1.0" fill="#c00000"/>
<rect x="228.2" y="466.5" width="32.5" height="1.0" fill="#70ad47"/>
<rect x="261.7" y="466.5" width="32.5" height="1.0" fill="#ed7d31"/>
<rect x="295.1" y="282.4" width="32.5" height="184.1" fill="#7030a0"/>
<rect x="328.6" y="224.8" width="32.5" height="241.7" fill="#7f8c8d"/>
<rect x="362.1" y="278.7" width="32.5" height="187.8" fill="#262626"/>
<text x="261.7" y="542" text-anchor="middle" class="label">AAPL</text>
<rect x="471.1" y="318.9" width="32.5" height="147.6" fill="#1f4e79"/>
<rect x="504.6" y="401.3" width="32.5" height="65.2" fill="#2e75b6"/>
<rect x="538.0" y="400.4" width="32.5" height="66.1" fill="#c00000"/>
<rect x="571.5" y="196.1" width="32.5" height="270.4" fill="#70ad47"/>
<rect x="605.0" y="109.0" width="32.5" height="357.5" fill="#ed7d31"/>
<rect x="638.5" y="147.1" width="32.5" height="319.4" fill="#7030a0"/>
<rect x="672.0" y="109.0" width="32.5" height="357.5" fill="#7f8c8d"/>
<rect x="705.4" y="278.7" width="32.5" height="187.8" fill="#262626"/>
<text x="605.0" y="542" text-anchor="middle" class="label">AMZN</text>
<rect x="814.4" y="380.6" width="32.5" height="86.0" fill="#1f4e79"/>
<rect x="847.9" y="333.1" width="32.5" height="133.5" fill="#2e75b6"/>
<rect x="881.4" y="466.5" width="32.5" height="9.5" fill="#c00000"/>
<rect x="914.9" y="267.7" width="32.5" height="198.8" fill="#70ad47"/>
<rect x="948.3" y="466.5" width="32.5" height="1.0" fill="#ed7d31"/>
<rect x="981.8" y="266.1" width="32.5" height="200.4" fill="#7030a0"/>
<rect x="1015.3" y="266.1" width="32.5" height="200.4" fill="#7f8c8d"/>
<rect x="1048.8" y="278.7" width="32.5" height="187.8" fill="#262626"/>
<text x="948.3" y="542" text-anchor="middle" class="label">JPM</text>
<rect x="90" y="578" width="12" height="12" fill="#1f4e79"/><text x="107" y="588" class="small">M0</text>
<rect x="190" y="578" width="12" height="12" fill="#2e75b6"/><text x="207" y="588" class="small">M1</text>
<rect x="290" y="578" width="12" height="12" fill="#c00000"/><text x="307" y="588" class="small">M2</text>
<rect x="390" y="578" width="12" height="12" fill="#70ad47"/><text x="407" y="588" class="small">A1</text>
<rect x="490" y="578" width="12" height="12" fill="#ed7d31"/><text x="507" y="588" class="small">A2</text>
<rect x="590" y="578" width="12" height="12" fill="#7030a0"/><text x="607" y="588" class="small">ARMA(1,1)</text>
<rect x="690" y="578" width="12" height="12" fill="#7f8c8d"/><text x="707" y="588" class="small">Equal-weight B&amp;H</text>
<rect x="826" y="578" width="12" height="12" fill="#262626"/><text x="843" y="588" class="small">SPY</text>
<text transform="translate(20,292.5) rotate(-90)" text-anchor="middle" class="label">Cumulative Return (%)</text>
<text x="16" y="638" class="small">Source: Official frozen AlphaMAS-Experiments artifacts; 2024H1, generated by COMPARE-01</text>
</svg>
