<svg xmlns="http://www.w3.org/2000/svg" width="1050" height="620" viewBox="0 0 1050 620">
<rect width="100%" height="100%" fill="white"/>
<style>text{font-family:Arial,Helvetica,sans-serif;fill:#17202a} .title{font-size:22px;font-weight:700} .axis{stroke:#566573;stroke-width:1} .grid{stroke:#d5d8dc;stroke-width:1} .label{font-size:12px} .small{font-size:10px;fill:#566573}</style>
<text x="525.0" y="30" text-anchor="middle" class="title">Aggregate Cumulative Return</text>
<line x1="90" y1="505.0" x2="1020" y2="505.0" class="grid"/><text x="82" y="509.0" text-anchor="end" class="label">0.00</text>
<line x1="90" y1="415.0" x2="1020" y2="415.0" class="grid"/><text x="82" y="419.0" text-anchor="end" class="label">6.04</text>
<line x1="90" y1="325.0" x2="1020" y2="325.0" class="grid"/><text x="82" y="329.0" text-anchor="end" class="label">12.08</text>
<line x1="90" y1="235.0" x2="1020" y2="235.0" class="grid"/><text x="82" y="239.0" text-anchor="end" class="label">18.12</text>
<line x1="90" y1="145.0" x2="1020" y2="145.0" class="grid"/><text x="82" y="149.0" text-anchor="end" class="label">24.15</text>
<line x1="90" y1="55.0" x2="1020" y2="55.0" class="grid"/><text x="82" y="59.0" text-anchor="end" class="label">30.19</text>
<line x1="90" y1="505.0" x2="1020" y2="505.0" class="axis"/>
<rect x="112.1" y="297.9" width="72.1" height="207.1" fill="#1f4e79"/>
<text x="148.1" y="291.9" text-anchor="middle" class="small">13.897</text>
<text transform="translate(148.1,527) rotate(-25)" text-anchor="end" class="label">M0</text>
<rect x="228.3" y="260.6" width="72.1" height="244.4" fill="#2e75b6"/>
<text x="264.4" y="254.6" text-anchor="middle" class="small">16.395</text>
<text transform="translate(264.4,527) rotate(-25)" text-anchor="end" class="label">M1</text>
<rect x="344.6" y="476.5" width="72.1" height="28.5" fill="#c00000"/>
<text x="380.6" y="470.5" text-anchor="middle" class="small">1.910</text>
<text transform="translate(380.6,527) rotate(-25)" text-anchor="end" class="label">M2</text>
<rect x="460.8" y="269.2" width="72.1" height="235.8" fill="#70ad47"/>
<text x="496.9" y="263.2" text-anchor="middle" class="small">15.821</text>
<text transform="translate(496.9,527) rotate(-25)" text-anchor="end" class="label">A1</text>
<rect x="577.1" y="325.4" width="72.1" height="179.6" fill="#ed7d31"/>
<text x="613.1" y="319.4" text-anchor="middle" class="small">12.053</text>
<text transform="translate(613.1,527) rotate(-25)" text-anchor="end" class="label">A2</text>
<rect x="693.3" y="151.3" width="72.1" height="353.7" fill="#7030a0"/>
<text x="729.4" y="145.3" text-anchor="middle" class="small">23.733</text>
<text transform="translate(729.4,527) rotate(-25)" text-anchor="end" class="label">ARMA(1,1)</text>
<rect x="809.6" y="103.2" width="72.1" height="401.8" fill="#7f8c8d"/>
<text x="845.6" y="97.2" text-anchor="middle" class="small">26.957</text>
<text transform="translate(845.6,527) rotate(-25)" text-anchor="end" class="label">Equal-weight B&amp;H</text>
<rect x="925.8" y="221.8" width="72.1" height="283.2" fill="#262626"/>
<text x="961.9" y="215.8" text-anchor="middle" class="small">19.001</text>
<text transform="translate(961.9,527) rotate(-25)" text-anchor="end" class="label">SPY</text>
<text transform="translate(20,280.0) rotate(-90)" text-anchor="middle" class="label">Cumulative Return (%)</text>
<text x="16" y="608" class="small">Source: Official frozen AlphaMAS-Experiments artifacts; 2024H1, generated by COMPARE-01</text>
</svg>
